<?xml version="1.0" encoding="UTF-8"?>
<!DOCTYPE svg PUBLIC "-//W3C//DTD SVG 1.1//EN" "http://www.w3.org/Graphics/SVG/1.1/DTD/svg11.dtd">
<svg xmlns="http://www.w3.org/2000/svg" version="1.1" width="1280px" height="464px" style="shape-rendering:geometricPrecision; text-rendering:geometricPrecision; image-rendering:optimizeQuality; fill-rule:evenodd; clip-rule:evenodd" xmlns:xlink="http://www.w3.org/1999/xlink">
<g><path style="opacity:1" fill="#f9faf9" d="M 634.5,20.5 C 655.167,20.5 675.833,20.5 696.5,20.5C 696.169,27.8635 696.503,35.1968 697.5,42.5C 708.952,37.6073 720.286,32.4406 731.5,27C 732.944,26.2195 734.277,26.3861 735.5,27.5C 750.544,49.0914 765.211,70.9248 779.5,93C 776.496,125.874 773.163,158.707 769.5,191.5C 755.416,199.959 741.249,208.293 727,216.5C 717,205.167 707,193.833 697,182.5C 697.585,213.15 697.585,243.817 697,274.5C 691.165,266.168 685.832,257.501 681,248.5C 681.819,285.487 682.152,322.487 682,359.5C 678.081,353.33 674.414,346.997 671,340.5C 670.667,340.833 670.333,341.167 670,341.5C 667.385,375.211 664.385,408.878 661,442.5C 650.637,382.289 641.304,321.956 633,261.5C 636.821,264.743 640.821,267.743 645,270.5C 645.167,269.333 645.333,268.167 645.5,267C 640.339,232.543 635.839,198.043 632,163.5C 637.876,166.771 643.876,169.771 650,172.5C 645.298,121.813 640.131,71.1467 634.5,20.5 Z M 724.5,50.5 C 726.25,53.3554 727.083,56.6887 727,60.5C 728.556,99.511 729.889,138.511 731,177.5C 728.732,181.051 726.232,184.384 723.5,187.5C 714.423,182.88 705.59,177.88 697,172.5C 696.333,136.167 696.333,99.8333 697,63.5C 706.424,59.5363 715.59,55.203 724.5,50.5 Z"/></g>
<g><path style="opacity:1" fill="#f9faf9" d="M 109.5,45.5 C 114.099,45.2 118.599,45.5333 123,46.5C 135.178,64.1881 147.844,81.5215 161,98.5C 163.449,103.73 165.616,109.063 167.5,114.5C 149.486,130.512 131.153,146.179 112.5,161.5C 112.167,161.333 111.833,161.167 111.5,161C 119.371,150.174 122.705,138.174 121.5,125C 118.166,108.836 113.166,93.336 106.5,78.5C 97.0097,83.0782 87.6763,87.9115 78.5,93C 72.5316,97.6431 68.0316,103.476 65,110.5C 63.5665,174.828 63.2331,239.161 64,303.5C 71.0996,316.268 81.0996,325.935 94,332.5C 106.174,329.115 116.841,323.115 126,314.5C 126.419,313.328 127.085,312.328 128,311.5C 128.833,286.493 128.666,261.493 127.5,236.5C 117.244,240.325 106.911,240.492 96.5,237C 89.5964,234.549 82.9297,231.549 76.5,228C 95.8549,221.325 114.522,212.992 132.5,203C 146.808,196.683 161.642,194.85 177,197.5C 177.174,230.208 177.674,262.875 178.5,295.5C 176.445,301.277 173.612,306.611 170,311.5C 151.541,332.974 129.041,348.474 102.5,358C 94.2225,360.372 86.2225,359.705 78.5,356C 69.1667,347.333 59.8333,338.667 50.5,330C 40.9321,321.102 32.0988,311.602 24,301.5C 19.3036,295.444 15.637,288.777 13,281.5C 10.9016,224.825 11.235,168.159 14,111.5C 13.806,107.74 14.9727,104.574 17.5,102C 45.4546,78.851 76.1213,60.0176 109.5,45.5 Z"/></g>
<g><path style="opacity:1" fill="#f9faf9" d="M 952.5,60.5 C 953.379,79.0001 953.379,97.6668 952.5,116.5C 959.5,116.5 966.5,116.5 973.5,116.5C 973.77,119.702 974.604,122.702 976,125.5C 986.602,116.9 996.602,107.567 1006,97.5C 1015.72,85.4503 1025.05,73.117 1034,60.5C 1034.37,79.1692 1034.2,97.8358 1033.5,116.5C 1040.5,116.5 1047.5,116.5 1054.5,116.5C 1055.82,122.778 1056.82,129.112 1057.5,135.5C 1050.17,135.5 1042.83,135.5 1035.5,135.5C 1034.62,198.519 1033.28,261.519 1031.5,324.5C 1032.6,329.37 1034.77,333.703 1038,337.5C 1042.17,341.667 1046.33,345.833 1050.5,350C 1036.31,345.487 1022.31,340.154 1008.5,334C 1003.2,330.702 999.365,326.202 997,320.5C 997.138,258.167 997.638,195.833 998.5,133.5C 983.833,134.167 969.167,134.833 954.5,135.5C 953.615,198.519 952.282,261.519 950.5,324.5C 951.602,329.37 953.768,333.703 957,337.5C 961.167,341.667 965.333,345.833 969.5,350C 955.311,345.487 941.311,340.154 927.5,334C 922.199,330.702 918.365,326.202 916,320.5C 916.138,258.167 916.638,195.833 917.5,133.5C 906.495,133.667 895.495,133.5 884.5,133C 912.223,113.448 934.89,89.2812 952.5,60.5 Z"/></g>
<g><path style="opacity:1" fill="#f9faf9" d="M 349.5,70.5 C 350.331,82.9934 350.831,95.66 351,108.5C 356.874,102.957 363.041,97.7904 369.5,93C 372.614,91.0691 375.947,90.4024 379.5,91C 387.7,105.734 395.367,120.734 402.5,136C 401.917,138.499 400.584,140.499 398.5,142C 386.033,149.636 373.7,157.469 361.5,165.5C 360.417,164.635 360.251,163.635 361,162.5C 365.827,158.342 368.994,153.175 370.5,147C 367.925,138.943 364.758,131.11 361,123.5C 357.155,119.325 354.155,119.992 352,125.5C 350.993,169.194 351.659,212.861 354,256.5C 355.226,263.394 359.06,268.227 365.5,271C 346.824,270.403 328.158,270.403 309.5,271C 314.1,268.785 318.266,265.952 322,262.5C 322.333,261.167 322.667,259.833 323,258.5C 323.255,207.94 323.755,157.94 324.5,108.5C 317.518,109.399 310.518,109.565 303.5,109C 319.609,97.0549 334.942,84.2215 349.5,70.5 Z"/></g>
<g><path style="opacity:1" fill="#f9faf9" d="M 441.5,70.5 C 442.331,82.9934 442.831,95.66 443,108.5C 448.874,102.957 455.041,97.7904 461.5,93C 464.614,91.0691 467.947,90.4024 471.5,91C 479.7,105.734 487.367,120.734 494.5,136C 493.917,138.499 492.584,140.499 490.5,142C 478.033,149.636 465.7,157.469 453.5,165.5C 452.417,164.635 452.251,163.635 453,162.5C 457.827,158.342 460.994,153.175 462.5,147C 459.925,138.943 456.758,131.11 453,123.5C 449.155,119.325 446.155,119.992 444,125.5C 442.993,169.194 443.659,212.861 446,256.5C 447.226,263.394 451.06,268.227 457.5,271C 438.824,270.403 420.158,270.403 401.5,271C 406.1,268.785 410.266,265.952 414,262.5C 414.333,261.167 414.667,259.833 415,258.5C 415.255,207.94 415.755,157.94 416.5,108.5C 409.518,109.399 402.518,109.565 395.5,109C 411.609,97.0549 426.942,84.2215 441.5,70.5 Z"/></g>
<g><path style="opacity:1" fill="#f9faf9" d="M 1214.5,70.5 C 1215.33,82.9934 1215.83,95.66 1216,108.5C 1221.87,102.957 1228.04,97.7904 1234.5,93C 1237.61,91.0691 1240.95,90.4024 1244.5,91C 1252.7,105.734 1260.37,120.734 1267.5,136C 1266.92,138.499 1265.58,140.499 1263.5,142C 1251.03,149.636 1238.7,157.469 1226.5,165.5C 1225.42,164.635 1225.25,163.635 1226,162.5C 1230.83,158.342 1233.99,153.175 1235.5,147C 1232.92,138.943 1229.76,131.11 1226,123.5C 1222.16,119.325 1219.16,119.992 1217,125.5C 1215.99,169.194 1216.66,212.861 1219,256.5C 1220.23,263.394 1224.06,268.227 1230.5,271C 1211.82,270.403 1193.16,270.403 1174.5,271C 1179.1,268.785 1183.27,265.952 1187,262.5C 1187.33,261.167 1187.67,259.833 1188,258.5C 1188.25,207.94 1188.75,157.94 1189.5,108.5C 1182.52,109.399 1175.52,109.565 1168.5,109C 1184.61,97.0549 1199.94,84.2215 1214.5,70.5 Z"/></g>
<g><path style="opacity:1" fill="#f9faf9" d="M 516.5,76.5 C 518.998,77.9123 521.664,79.0789 524.5,80C 530.416,79.9818 536.249,80.1485 542,80.5C 543.092,83.0444 543.759,85.7111 544,88.5C 545.041,98.8206 545.375,109.154 545,119.5C 537.457,128.392 527.957,132.725 516.5,132.5C 505.596,119.299 501.096,104.299 503,87.5C 505.651,81.3296 510.151,77.663 516.5,76.5 Z"/></g>
<g><path style="opacity:1" fill="#f9faf9" d="M 240.5,98.5 C 241.922,98.7086 243.255,99.2086 244.5,100C 254.5,108.333 264.5,116.667 274.5,125C 281.215,130.939 286.048,138.106 289,146.5C 288.78,181.163 288.28,215.83 287.5,250.5C 292.481,251.089 297.481,251.589 302.5,252C 293.213,263.409 284.046,274.909 275,286.5C 258.074,301.673 251.408,298.006 255,275.5C 247.429,281.369 239.596,286.869 231.5,292C 227.494,292.442 223.994,291.276 221,288.5C 215.669,280.837 211.669,272.504 209,263.5C 204.382,248.028 200.549,232.361 197.5,216.5C 202.999,204.834 211.666,196.334 223.5,191C 232.04,186.392 240.707,182.392 249.5,179C 236.987,192.771 232.487,208.938 236,227.5C 236.824,238.799 239.824,249.466 245,259.5C 249.101,263.323 252.101,262.323 254,256.5C 254.667,213.833 254.667,171.167 254,128.5C 243.47,134.369 234.137,141.703 226,150.5C 225.077,152.034 224.577,153.701 224.5,155.5C 225.662,160.481 226.662,165.481 227.5,170.5C 224.475,170.877 221.475,171.044 218.5,171C 212.374,162.587 206.874,153.753 202,144.5C 199.705,137.97 200.039,131.636 203,125.5C 215.126,115.866 227.626,106.866 240.5,98.5 Z"/></g>
<g><path style="opacity:1" fill="#f9faf9" d="M 1114.5,128.5 C 1117.27,128.421 1119.94,128.921 1122.5,130C 1133,137.833 1143.5,145.667 1154,153.5C 1157.66,167.13 1161.16,180.797 1164.5,194.5C 1161.71,202.739 1158.38,210.739 1154.5,218.5C 1141.2,210.673 1126.87,207.507 1111.5,209C 1108.63,209.131 1106.3,210.297 1104.5,212.5C 1105.77,236.13 1106.93,259.797 1108,283.5C 1111,288.5 1115,292.5 1120,295.5C 1126,287.528 1129.66,278.528 1131,268.5C 1131.56,260.8 1132.39,253.134 1133.5,245.5C 1139.75,253.657 1145.75,261.99 1151.5,270.5C 1143.67,282.833 1135.83,295.167 1128,307.5C 1123.86,309.039 1119.52,309.706 1115,309.5C 1111.83,309.333 1108.67,309.167 1105.5,309C 1092.04,296.511 1078.88,283.678 1066,270.5C 1060.89,235.975 1061.89,201.641 1069,167.5C 1084.06,154.261 1099.23,141.261 1114.5,128.5 Z M 1110.5,144.5 C 1112.37,144.859 1113.87,145.859 1115,147.5C 1121.4,163.54 1127.9,179.54 1134.5,195.5C 1124.56,195.708 1114.56,195.708 1104.5,195.5C 1105.91,178.378 1107.91,161.378 1110.5,144.5 Z"/></g>
<g><path style="opacity:1" fill="#f9faf9" d="M 849.5,140.5 C 859.41,147.063 869.076,154.063 878.5,161.5C 885.393,169.956 889.56,179.623 891,190.5C 893.647,223.445 894.647,256.445 894,289.5C 891.955,292.423 889.788,295.257 887.5,298C 873.538,309.397 857.704,316.897 840,320.5C 837.075,320.477 834.241,319.977 831.5,319C 820.368,309.536 809.534,299.703 799,289.5C 795.248,285.655 792.248,281.322 790,276.5C 789.603,242.083 790.937,207.75 794,173.5C 810.894,159.803 829.394,148.803 849.5,140.5 Z M 847.5,159.5 C 849.421,163.509 850.588,167.843 851,172.5C 854.767,213.082 856.101,253.748 855,294.5C 851.209,299.447 846.376,303.114 840.5,305.5C 835.2,303.577 831.7,299.91 830,294.5C 828.701,255.505 828.035,216.505 828,177.5C 830.075,173.421 832.908,169.921 836.5,167C 840.345,164.637 844.011,162.137 847.5,159.5 Z"/></g>
<g><path style="opacity:1" fill="#f9faf9" d="M 504.5,153.5 C 516.5,153.5 528.5,153.5 540.5,153.5C 542.673,204.915 541.34,256.248 536.5,307.5C 536.427,316.196 540.094,322.696 547.5,327C 528.833,327.667 510.167,327.667 491.5,327C 496.231,324.044 499.398,319.877 501,314.5C 505.576,286.531 507.409,258.364 506.5,230C 506.521,204.479 505.854,178.979 504.5,153.5 Z"/></g>
</svg>
