<?xml version="1.0" encoding="UTF-8"?>
<!DOCTYPE svg PUBLIC "-//W3C//DTD SVG 1.1//EN" "http://www.w3.org/Graphics/SVG/1.1/DTD/svg11.dtd">
<svg xmlns="http://www.w3.org/2000/svg" version="1.1" width="1280px" height="464px" style="shape-rendering:geometricPrecision; text-rendering:geometricPrecision; image-rendering:optimizeQuality; fill-rule:evenodd; clip-rule:evenodd" xmlns:xlink="http://www.w3.org/1999/xlink">
<g><path style="opacity:1" fill="#f9faf9" d="M 729.5,-0.5 C 737.5,-0.5 745.5,-0.5 753.5,-0.5C 764.445,16.2851 775.612,32.9518 787,49.5C 788.275,51.7173 789.275,54.0506 790,56.5C 790.243,69.5148 790.743,82.5148 791.5,95.5C 790.521,116.947 788.688,138.28 786,159.5C 793.268,160.977 800.602,162.31 808,163.5C 808.945,163.095 809.612,162.428 810,161.5C 810.317,157.061 811.484,152.895 813.5,149C 828.833,139.667 844.167,130.333 859.5,121C 863.67,118.212 868.003,117.879 872.5,120C 883.774,130.269 893.941,141.435 903,153.5C 904.126,157.749 904.792,162.082 905,166.5C 907.317,208.139 907.983,249.806 907,291.5C 903.912,295.798 900.079,299.298 895.5,302C 883.795,309.019 871.462,314.686 858.5,319C 855.833,319.667 853.167,319.667 850.5,319C 840.387,308.887 830.221,298.721 820,288.5C 816.489,284.14 813.489,279.473 811,274.5C 810.043,266.191 809.376,257.858 809,249.5C 808.667,226.167 808.333,202.833 808,179.5C 806.352,178.283 804.519,177.45 802.5,177C 796.155,176.249 789.822,175.415 783.5,174.5C 782.5,174.833 781.5,175.167 780.5,175.5C 773.379,186.239 763.379,192.739 750.5,195C 745.622,196.806 740.622,197.473 735.5,197C 734.667,196.167 733.833,195.333 733,194.5C 727.583,185.331 721.917,176.331 716,167.5C 715.96,206.028 717.126,244.528 719.5,283C 719.167,284.5 718.833,286 718.5,287.5C 715.343,281.549 712.843,275.215 711,268.5C 709.667,265.833 708.333,263.167 707,260.5C 706.333,259.167 705.667,259.167 705,260.5C 704.289,288.509 704.456,316.509 705.5,344.5C 704.325,344.719 703.325,344.386 702.5,343.5C 700.081,338.915 697.081,334.748 693.5,331C 692.552,330.517 691.552,330.351 690.5,330.5C 688.747,374.811 687.081,419.145 685.5,463.5C 684.833,463.5 684.167,463.5 683.5,463.5C 675.889,375.162 668.222,286.829 660.5,198.5C 661.675,198.281 662.675,198.614 663.5,199.5C 666.106,203.609 669.273,207.276 673,210.5C 669.737,183.677 665.237,157.01 659.5,130.5C 659.833,129.833 660.167,129.167 660.5,128.5C 663.354,131.188 666.354,133.688 669.5,136C 670.449,136.617 671.282,136.451 672,135.5C 672.667,129.167 672.667,122.833 672,116.5C 668.77,85.4268 665.103,54.4268 661,23.5C 654.657,17.9892 648.491,12.3226 642.5,6.5C 671.602,3.85049 700.602,1.51716 729.5,-0.5 Z M 710.5,25.5 C 721.435,25.9047 732.269,26.9047 743,28.5C 745.142,66.4788 746.475,104.479 747,142.5C 746.5,143 746,143.5 745.5,144C 734.115,144.777 722.782,145.944 711.5,147.5C 710.218,106.772 709.885,66.1053 710.5,25.5 Z M 861.5,137.5 C 862.376,137.369 863.043,137.702 863.5,138.5C 860.679,148.642 855.013,156.808 846.5,163C 844.788,164.751 842.788,165.418 840.5,165C 839.378,161.591 839.211,158.091 840,154.5C 847.145,148.693 854.312,143.027 861.5,137.5 Z M 727.5,160.5 C 732.19,161.138 736.856,161.971 741.5,163C 743.618,163.26 745.284,164.26 746.5,166C 744.009,169.49 741.175,172.657 738,175.5C 733.495,171.141 729.995,166.141 727.5,160.5 Z M 868.5,170.5 C 870.144,170.286 871.644,170.62 873,171.5C 877.378,208.36 879.044,245.36 878,282.5C 877.31,285.196 875.81,287.363 873.5,289C 867.616,292.109 861.616,294.942 855.5,297.5C 848.431,292.931 842.931,286.931 839,279.5C 837.682,245.508 837.348,211.508 838,177.5C 848.139,174.708 858.306,172.374 868.5,170.5 Z"/></g>
<g><path style="opacity:1" fill="#f9faf9" d="M 965.5,41.5 C 966.931,41.8807 967.764,42.8807 968,44.5C 968.333,57.8333 968.667,71.1667 969,84.5C 969.5,86.3333 970.667,87.5 972.5,88C 978.218,88.2109 983.885,88.7109 989.5,89.5C 991.41,94.3356 991.91,99.3356 991,104.5C 990.25,105.126 989.416,105.626 988.5,106C 983.167,106.333 977.833,106.667 972.5,107C 971.584,107.374 970.75,107.874 970,108.5C 967.061,181.143 965.395,253.81 965,326.5C 971,332.5 977,338.5 983,344.5C 985.27,350.431 983.437,351.931 977.5,349C 962.855,339.434 948.688,329.267 935,318.5C 933.895,249.172 933.228,179.838 933,110.5C 932.228,109.151 931.061,108.318 929.5,108C 920.475,107.716 911.475,107.216 902.5,106.5C 902.351,105.448 902.517,104.448 903,103.5C 925.67,84.6628 946.504,63.9961 965.5,41.5 Z"/></g>
<g><path style="opacity:1" fill="#f9faf9" d="M -0.5,224.5 C -0.5,222.167 -0.5,219.833 -0.5,217.5C 3.86889,212.308 9.53556,209.142 16.5,208C 21.8087,206.471 27.142,206.304 32.5,207.5C 25.9233,211.901 19.7566,216.901 14,222.5C 13.3333,223.833 13.3333,225.167 14,226.5C 26.0445,239.355 40.3778,248.688 57,254.5C 57.3333,254.167 57.6667,253.833 58,253.5C 58.6667,197.167 58.6667,140.833 58,84.5C 57.6667,83.5 57.3333,82.5 57,81.5C 52.5961,77.2653 48.4294,72.932 44.5,68.5C 44.7093,67.914 45.0426,67.414 45.5,67C 63.8333,66.3333 82.1667,66.3333 100.5,67C 102.577,67.1922 104.577,67.6922 106.5,68.5C 102.496,73.1843 98.9961,78.1843 96,83.5C 95.3333,138.833 95.3333,194.167 96,249.5C 96.3333,250.167 96.6667,250.833 97,251.5C 102.882,248.475 108.715,245.308 114.5,242C 125.333,233.167 136.167,224.333 147,215.5C 147.667,164.5 147.667,113.5 147,62.5C 142.965,58.7998 139.298,54.7998 136,50.5C 135.506,48.8659 135.34,47.1992 135.5,45.5C 156.752,45.955 177.919,44.955 199,42.5C 199.772,42.6448 200.439,42.9781 201,43.5C 200.956,45.2785 200.289,46.9452 199,48.5C 194.667,53.5 190.333,58.5 186,63.5C 185.167,106.504 185.333,149.504 186.5,192.5C 198.342,189.953 210.342,188.453 222.5,188C 234,187.5 245.5,187 257,186.5C 262.497,186.3 267.83,186.966 273,188.5C 273.667,189.5 273.667,190.5 273,191.5C 265.48,197.597 258.147,203.93 251,210.5C 250.598,211.872 250.098,213.205 249.5,214.5C 252.878,235.557 256.711,256.557 261,277.5C 262.835,289.881 268.501,291.881 278,283.5C 278.862,281.913 279.529,280.246 280,278.5C 280.526,233.137 279.526,187.804 277,142.5C 277.094,136.803 275.094,132.136 271,128.5C 260.492,134.341 251.159,141.675 243,150.5C 242.667,155.833 242.333,161.167 242,166.5C 239.733,167.935 237.733,167.602 236,165.5C 228.967,155.766 223.8,145.1 220.5,133.5C 221.122,128.088 223.456,123.588 227.5,120C 241.055,110.472 255.555,102.638 271,96.5C 272.627,96.6251 274.127,97.1251 275.5,98C 284.63,108.799 294.13,119.299 304,129.5C 307.721,134.275 310.388,139.609 312,145.5C 312.896,187.172 313.896,228.839 315,270.5C 315.346,272.848 316.513,274.681 318.5,276C 321.482,276.498 324.482,276.665 327.5,276.5C 327.657,277.873 327.49,279.207 327,280.5C 317.13,288.703 308.297,297.869 300.5,308C 295.297,313.071 289.297,314.404 282.5,312C 280.406,307.752 278.239,303.585 276,299.5C 268.94,302.946 262.107,306.78 255.5,311C 246.629,314.476 240.129,311.976 236,303.5C 229.295,278.641 224.128,253.475 220.5,228C 220.235,223.128 221.402,218.628 224,214.5C 229.321,209.012 234.821,203.679 240.5,198.5C 227.257,200.297 213.924,202.797 200.5,206C 196.118,206.591 192.118,208.091 188.5,210.5C 187.811,212.444 187.311,214.444 187,216.5C 186.333,275.167 186.333,333.833 187,392.5C 187.611,399.278 189.611,405.611 193,411.5C 197.3,416.801 201.966,421.801 207,426.5C 208.105,430.07 206.771,432.07 203,432.5C 180.04,426.012 156.707,424.678 133,428.5C 127.956,429.337 125.956,427.337 127,422.5C 139.329,414.198 146.329,402.531 148,387.5C 149.622,339.856 149.955,292.19 149,244.5C 148.667,244.167 148.333,243.833 148,243.5C 136.892,252.586 124.725,260.086 111.5,266C 106.696,268.213 101.696,269.713 96.5,270.5C 95.3519,308.137 95.1852,345.804 96,383.5C 98.7645,389.949 102.765,395.615 108,400.5C 108.49,401.793 108.657,403.127 108.5,404.5C 98.2376,402.348 87.9043,400.515 77.5,399C 64.9899,398.821 52.6566,397.821 40.5,396C 46.3333,390.167 52.1667,384.333 58,378.5C 58.8332,343.162 58.6666,307.829 57.5,272.5C 37.8214,265.309 20.9881,253.976 7,238.5C 3.67822,234.185 1.17822,229.518 -0.5,224.5 Z"/></g>
<g><path style="opacity:1" fill="#f9faf9" d="M 472.5,55.5 C 473.5,55.5 474.5,55.5 475.5,55.5C 475.099,63.5852 475.599,71.5852 477,79.5C 483.063,74.433 489.396,69.7663 496,65.5C 496.772,65.6448 497.439,65.9781 498,66.5C 505.213,83.4206 511.713,100.587 517.5,118C 517.333,119.167 517.167,120.333 517,121.5C 508.778,129.023 500.278,136.19 491.5,143C 488.77,143.942 487.437,142.942 487.5,140C 490.921,131.09 491.421,121.923 489,112.5C 487.602,105.972 485.602,99.6387 483,93.5C 480.006,92.1102 478.006,93.1102 477,96.5C 475.543,144.771 475.043,192.938 475.5,241C 476.317,248.754 476.817,256.588 477,264.5C 478.608,267.772 480.608,270.772 483,273.5C 484.009,275.025 484.509,276.692 484.5,278.5C 467.992,276.719 451.659,277.719 435.5,281.5C 436.383,277.418 438.549,274.084 442,271.5C 443.861,269.112 445.194,266.446 446,263.5C 447.456,206.174 448.122,148.841 448,91.5C 445.298,89.0929 442.798,86.5929 440.5,84C 442.753,80.7399 445.42,77.7399 448.5,75C 456.979,69.0146 464.979,62.5146 472.5,55.5 Z"/></g>
<g><path style="opacity:1" fill="#f9faf9" d="M 1044.5,60.5 C 1045.12,60.6107 1045.62,60.944 1046,61.5C 1046.96,79.5039 1047.96,97.5039 1049,115.5C 1050.79,117.099 1052.95,117.933 1055.5,118C 1061.83,118.333 1068.17,118.667 1074.5,119C 1075.13,121.075 1075.47,123.241 1075.5,125.5C 1075.41,127.964 1074.74,130.13 1073.5,132C 1066.86,132.887 1060.19,133.554 1053.5,134C 1051.94,134.318 1050.77,135.151 1050,136.5C 1050.44,203.503 1051.44,270.503 1053,337.5C 1054.17,340 1056,341.833 1058.5,343C 1066.34,347.422 1074.34,351.588 1082.5,355.5C 1088.22,351.655 1092.05,346.655 1094,340.5C 1084.91,338.511 1075.74,336.678 1066.5,335C 1064.61,333.921 1064.27,332.587 1065.5,331C 1081.82,331.318 1098.16,331.818 1114.5,332.5C 1114.76,333.978 1114.43,335.311 1113.5,336.5C 1110.86,337.971 1108.36,339.637 1106,341.5C 1100.45,350.77 1094.28,359.604 1087.5,368C 1083.6,368.738 1079.93,368.072 1076.5,366C 1056.6,355.801 1037.1,344.967 1018,333.5C 1016.25,267.235 1014.59,200.901 1013,134.5C 1011.93,133.809 1010.77,133.309 1009.5,133C 1003.84,132.501 998.176,132.334 992.5,132.5C 992.608,130.217 993.441,128.217 995,126.5C 1005.37,115.128 1015.37,103.461 1025,91.5C 1031.51,81.1386 1038.01,70.8052 1044.5,60.5 Z"/></g>
<g><path style="opacity:1" fill="#f9faf9" d="M 372.5,67.5 C 373.833,67.5 375.167,67.5 376.5,67.5C 376.73,76.2708 377.73,84.9375 379.5,93.5C 385.331,89.4171 391.331,85.5838 397.5,82C 399.112,81.2797 400.612,81.4464 402,82.5C 411.03,99.5854 417.696,117.585 422,136.5C 422.79,139.634 422.457,142.634 421,145.5C 413.593,152.118 406.093,158.618 398.5,165C 396.866,165.494 395.199,165.66 393.5,165.5C 393.711,161.783 394.711,158.283 396.5,155C 393.658,138.799 389.658,122.965 384.5,107.5C 382.742,108.128 381.242,109.128 380,110.5C 381.487,166.504 383.487,222.504 386,278.5C 386.667,279.833 387.333,281.167 388,282.5C 392.314,285.647 396.148,289.314 399.5,293.5C 398.624,294.251 397.624,294.751 396.5,295C 378.184,296.291 359.851,297.124 341.5,297.5C 341.351,296.448 341.517,295.448 342,294.5C 346.035,290.8 349.702,286.8 353,282.5C 352.924,224.822 351.924,167.156 350,109.5C 349.727,107.899 349.227,106.399 348.5,105C 342.87,104.034 337.204,103.367 331.5,103C 330.978,102.439 330.645,101.772 330.5,101C 344.38,89.6137 358.38,78.4471 372.5,67.5 Z"/></g>
<g><path style="opacity:1" fill="#f9faf9" d="M 1279.5,154.5 C 1279.5,157.5 1279.5,160.5 1279.5,163.5C 1274.03,169.138 1268.7,174.971 1263.5,181C 1258.93,185.408 1253.93,189.241 1248.5,192.5C 1247.45,191.562 1246.78,190.395 1246.5,189C 1248.87,184.435 1251.37,179.935 1254,175.5C 1251.18,163.016 1247.51,150.683 1243,138.5C 1239.11,135.389 1236.11,136.056 1234,140.5C 1233.8,195.524 1234.8,250.524 1237,305.5C 1237.28,316.217 1241.44,325.051 1249.5,332C 1252.97,333.97 1256.3,336.136 1259.5,338.5C 1237.85,339.127 1216.52,336.627 1195.5,331C 1190.86,330.26 1186.52,328.76 1182.5,326.5C 1193.95,320.62 1200.78,311.287 1203,298.5C 1203.29,248.157 1202.62,197.824 1201,147.5C 1199.29,144.104 1196.46,142.604 1192.5,143C 1191.45,141.612 1191.28,140.112 1192,138.5C 1202.33,126.167 1212.67,113.833 1223,101.5C 1224.39,99.7727 1226.06,98.4394 1228,97.5C 1228.77,97.6448 1229.44,97.9781 1230,98.5C 1230.67,103.833 1231.33,109.167 1232,114.5C 1232.67,115.167 1233.33,115.833 1234,116.5C 1239.17,113.333 1244.33,110.167 1249.5,107C 1252.03,106.104 1254.19,106.604 1256,108.5C 1264.13,123.769 1271.97,139.103 1279.5,154.5 Z"/></g>
<g><path style="opacity:1" fill="#f9faf9" d="M 1123.5,112.5 C 1125.2,112.34 1126.87,112.506 1128.5,113C 1139.6,119.774 1150.44,126.941 1161,134.5C 1166.88,150.298 1172.04,166.298 1176.5,182.5C 1172.69,191.844 1167.35,200.344 1160.5,208C 1157.83,208.667 1155.17,208.667 1152.5,208C 1140.87,205.009 1129.2,202.176 1117.5,199.5C 1116.56,199.608 1115.72,199.941 1115,200.5C 1114.58,225.506 1114.92,250.506 1116,275.5C 1116.16,279.287 1116.83,282.954 1118,286.5C 1122.47,291.968 1127.3,297.135 1132.5,302C 1133.45,302.617 1134.28,302.451 1135,301.5C 1139.68,283.958 1144.85,266.624 1150.5,249.5C 1156.57,255.749 1161.73,262.749 1166,270.5C 1166.79,273.634 1166.46,276.634 1165,279.5C 1156.83,291 1148.67,302.5 1140.5,314C 1138.63,314.985 1136.63,315.485 1134.5,315.5C 1126.02,315.119 1117.69,313.953 1109.5,312C 1100.22,300.725 1091.72,288.891 1084,276.5C 1084.23,234.822 1085.23,193.156 1087,151.5C 1087.36,149.392 1088.03,147.392 1089,145.5C 1100.09,133.904 1111.59,122.904 1123.5,112.5 Z M 1122.5,131.5 C 1124.39,131.297 1125.89,131.963 1127,133.5C 1134.99,151.303 1142.49,169.303 1149.5,187.5C 1149.44,188.737 1148.94,189.737 1148,190.5C 1139.23,188.912 1130.39,187.412 1121.5,186C 1119.32,185.837 1117.49,185.004 1116,183.5C 1115.59,175.189 1115.43,167.022 1115.5,159C 1116.31,151.913 1116.81,144.747 1117,137.5C 1117.68,134.321 1119.52,132.321 1122.5,131.5 Z"/></g>
<g><path style="opacity:1" fill="#f9faf9" d="M 575.5,137.5 C 591.515,138.413 607.515,139.579 623.5,141C 624.022,141.561 624.355,142.228 624.5,143C 605.412,189.922 584.578,236.088 562,281.5C 542.798,316.076 522.965,350.243 502.5,384C 466.569,383.04 430.902,379.374 395.5,373C 380.162,369.829 365.828,364.162 352.5,356C 351.056,354.874 350.39,353.374 350.5,351.5C 353.775,342.948 357.608,334.615 362,326.5C 366.532,321.633 371.366,317.133 376.5,313C 388.404,311.375 400.404,311.042 412.5,312C 416.082,312.595 416.416,313.929 413.5,316C 404.769,319.782 396.269,323.949 388,328.5C 385.667,333.833 383.333,339.167 381,344.5C 380.242,346.769 380.409,348.936 381.5,351C 415.086,355.125 448.753,358.125 482.5,360C 483.333,359.167 484.167,358.333 485,357.5C 497.413,334.339 510.08,311.339 523,288.5C 525.864,283.609 528.03,278.442 529.5,273C 522.079,238.149 514.579,203.316 507,168.5C 505.487,165.476 503.487,162.809 501,160.5C 500.517,159.552 500.351,158.552 500.5,157.5C 513.804,156.335 527.137,155.669 540.5,155.5C 540.028,158.815 538.195,161.149 535,162.5C 534.125,163.873 533.625,165.373 533.5,167C 537.807,193.351 542.807,219.518 548.5,245.5C 562.326,215.194 574.493,184.194 585,152.5C 585.667,151.167 585.667,149.833 585,148.5C 582.297,145.462 579.297,142.795 576,140.5C 575.517,139.552 575.351,138.552 575.5,137.5 Z"/></g>
</svg>
