<?xml version="1.0" encoding="UTF-8"?>
<!DOCTYPE svg PUBLIC "-//W3C//DTD SVG 1.1//EN" "http://www.w3.org/Graphics/SVG/1.1/DTD/svg11.dtd">
<svg xmlns="http://www.w3.org/2000/svg" version="1.1" width="1280px" height="464px" style="shape-rendering:geometricPrecision; text-rendering:geometricPrecision; image-rendering:optimizeQuality; fill-rule:evenodd; clip-rule:evenodd" xmlns:xlink="http://www.w3.org/1999/xlink">
<g><path style="opacity:1" fill="#f9faf9" d="M 180.5,-0.5 C 181.167,-0.5 181.833,-0.5 182.5,-0.5C 201.101,13.4278 219.434,27.7611 237.5,42.5C 188.171,43.4999 138.838,43.8333 89.5,43.5C 89.1936,136.189 90.3602,228.856 93,321.5C 101.74,327.759 110.574,333.759 119.5,339.5C 116.894,340.652 114.227,340.818 111.5,340C 85.116,334.487 58.7826,328.82 32.5,323C 36.9977,320.869 41.6644,319.036 46.5,317.5C 47.4998,290.842 47.8331,264.175 47.5,237.5C 30.1597,234.751 18.6597,225.084 13,208.5C 12.1717,203.798 12.3384,199.131 13.5,194.5C 22.4764,189.171 32.1431,187.171 42.5,188.5C 41.91,189.799 40.91,190.632 39.5,191C 21.7254,195.527 19.7254,204.027 33.5,216.5C 37.8822,218.961 42.5489,220.627 47.5,221.5C 47.6667,163.832 47.5,106.166 47,48.5C 36.7136,36.7098 26.2136,25.0432 15.5,13.5C 72.4971,12.6667 129.497,12.1667 186.5,12C 184.088,8.00955 182.088,3.84288 180.5,-0.5 Z"/></g>
<g><path style="opacity:1" fill="#f9faf9" d="M 614.5,463.5 C 613.167,463.5 611.833,463.5 610.5,463.5C 609.285,458.647 608.951,453.814 609.5,449C 599.628,386.522 589.961,324.022 580.5,261.5C 581.552,261.351 582.552,261.517 583.5,262C 587.73,265.893 591.563,270.059 595,274.5C 590.384,235.795 585.217,197.129 579.5,158.5C 581.308,158.491 582.975,158.991 584.5,160C 588.988,163.743 593.654,167.243 598.5,170.5C 598.833,168.667 599.167,166.833 599.5,165C 593.255,112.56 587.588,60.0604 582.5,7.5C 605.515,7.31238 628.515,7.81238 651.5,9C 652.048,15.7607 652.215,22.5941 652,29.5C 661.16,26.2535 670.326,23.0869 679.5,20C 681.167,19.3333 682.833,19.3333 684.5,20C 699.544,41.2548 714.711,62.4215 730,83.5C 728.692,154.167 727.358,224.834 726,295.5C 733.487,309.006 744.987,315.172 760.5,314C 752.026,307.35 744.859,299.517 739,290.5C 739.409,252.452 741.076,214.452 744,176.5C 765.015,160.911 787.848,148.911 812.5,140.5C 824.216,147.376 835.549,154.876 846.5,163C 855.867,172.57 861.367,184.07 863,197.5C 865.253,225.112 866.42,252.778 866.5,280.5C 866.64,289.596 866.14,298.596 865,307.5C 848.392,322.556 829.225,333.056 807.5,339C 802.5,339.667 797.5,339.667 792.5,339C 784.988,333.743 777.654,328.243 770.5,322.5C 769.534,324.396 769.201,326.396 769.5,328.5C 728.508,321.696 687.842,313.696 647.5,304.5C 654.946,298.27 662.613,292.27 670.5,286.5C 672.79,281.679 674.623,276.679 676,271.5C 677.595,197.753 676.095,124.086 671.5,50.5C 666.489,50.3341 661.489,50.5007 656.5,51C 653.576,52.1188 651.576,54.1188 650.5,57C 652.86,133.136 654.86,209.303 656.5,285.5C 655.022,285.762 653.689,285.429 652.5,284.5C 648.984,277.469 645.484,270.469 642,263.5C 641.207,300.836 640.374,338.169 639.5,375.5C 638.5,375.5 637.5,375.5 636.5,375.5C 633.21,367.588 629.377,359.921 625,352.5C 621.588,388.131 618.588,423.798 616,459.5C 614.812,460.563 614.312,461.897 614.5,463.5 Z M 809.5,161.5 C 811.841,166.117 813.341,171.117 814,176.5C 818.079,220.739 819.746,265.072 819,309.5C 814.615,316.03 808.615,320.363 801,322.5C 792.95,318.739 788.616,312.406 788,303.5C 787.444,263.155 786.778,222.822 786,182.5C 787.923,178.742 790.423,175.409 793.5,172.5C 798.899,168.811 804.233,165.144 809.5,161.5 Z"/></g>
<g><path style="opacity:1" fill="#f9faf9" d="M 371.5,39.5 C 374.5,39.5 377.5,39.5 380.5,39.5C 380.17,46.5316 380.503,53.5316 381.5,60.5C 393.123,56.6823 404.456,52.1823 415.5,47C 417.473,46.5045 419.473,46.3379 421.5,46.5C 421.788,59.7295 426.455,71.0629 435.5,80.5C 436.667,109.161 436.833,137.828 436,166.5C 434.27,169.392 432.103,171.725 429.5,173.5C 414.848,168.436 399.848,164.769 384.5,162.5C 384.138,189.854 384.638,217.187 386,244.5C 386.333,245.833 386.667,247.167 387,248.5C 393.514,254.679 400.347,260.512 407.5,266C 403.473,266.331 399.473,265.998 395.5,265C 376.209,260.452 356.876,256.118 337.5,252C 337.043,251.586 336.709,251.086 336.5,250.5C 340.802,247.697 344.635,244.364 348,240.5C 348.816,188.145 348.649,135.811 347.5,83.5C 341.833,83.5 336.167,83.5 330.5,83.5C 330.281,82.325 330.614,81.325 331.5,80.5C 344.827,66.8393 358.161,53.1726 371.5,39.5 Z M 408.5,74.5 C 410.262,74.3573 411.929,74.6906 413.5,75.5C 414.5,102.825 414.833,130.159 414.5,157.5C 405.005,156.034 395.672,153.868 386.5,151C 385.712,147.924 385.212,144.758 385,141.5C 384.333,122.167 384.333,102.833 385,83.5C 392.738,80.1132 400.572,77.1132 408.5,74.5 Z"/></g>
<g><path style="opacity:1" fill="#f9faf9" d="M 268.5,58.5 C 270.167,58.5 271.833,58.5 273.5,58.5C 273.5,65.8333 273.5,73.1667 273.5,80.5C 284.716,76.5598 295.716,72.0598 306.5,67C 309.146,66.5026 311.813,66.3359 314.5,66.5C 315.02,79.2498 319.52,90.2498 328,99.5C 328.667,128.833 328.667,158.167 328,187.5C 326.333,189.5 324.667,191.5 323,193.5C 308.243,188.186 293.076,184.519 277.5,182.5C 277.333,204.169 277.5,225.836 278,247.5C 278.211,254.551 278.878,261.551 280,268.5C 287.112,273.978 293.946,279.811 300.5,286C 277.225,281.361 253.892,276.694 230.5,272C 230.043,271.586 229.709,271.086 229.5,270.5C 233.511,266.988 237.345,263.321 241,259.5C 240.947,207.169 240.78,154.835 240.5,102.5C 234.491,102.666 228.491,102.499 222.5,102C 236.502,88.3313 250.169,74.3313 263.5,60C 265.382,59.8019 267.048,59.3019 268.5,58.5 Z M 301.5,93.5 C 303.722,93.178 305.556,93.8446 307,95.5C 307.833,122.839 307.667,150.173 306.5,177.5C 297.084,175.418 287.75,173.084 278.5,170.5C 278.068,150.493 277.402,130.493 276.5,110.5C 276.833,108.167 277.167,105.833 277.5,103.5C 285.451,99.857 293.451,96.5236 301.5,93.5 Z"/></g>
<g><path style="opacity:1" fill="#f9faf9" d="M 852.5,69.5 C 854.989,71.8487 856.989,74.6821 858.5,78C 889.839,78.8332 921.172,78.6666 952.5,77.5C 954.167,74.8333 955.833,72.1667 957.5,69.5C 958.833,89.5 958.833,109.5 957.5,129.5C 951.461,121.258 945.795,112.758 940.5,104C 935.177,103.501 929.844,103.334 924.5,103.5C 923.05,172.501 921.884,241.501 921,310.5C 926.208,320.212 932.042,329.545 938.5,338.5C 937.833,338.833 937.167,339.167 936.5,339.5C 921.172,331.169 905.839,322.836 890.5,314.5C 890.167,301.667 889.833,288.833 889.5,276C 890.874,217.841 891.541,159.675 891.5,101.5C 884.492,101.334 877.492,101.5 870.5,102C 865.637,109.032 860.97,116.198 856.5,123.5C 855.672,124.415 854.672,125.081 853.5,125.5C 852.5,106.845 852.167,88.1786 852.5,69.5 Z"/></g>
<g><path style="opacity:1" fill="#f9faf9" d="M 160.5,74.5 C 180.625,88.1131 199.459,103.446 217,120.5C 218.586,122.67 219.92,125.004 221,127.5C 222.119,135.427 222.619,143.427 222.5,151.5C 221.927,185.84 221.26,220.173 220.5,254.5C 226.925,254.326 233.259,254.993 239.5,256.5C 228.305,270.208 216.638,283.541 204.5,296.5C 199.85,300.492 194.85,303.992 189.5,307C 185.909,307.789 182.409,307.622 179,306.5C 178.667,299.167 178.333,291.833 178,284.5C 168.082,290.542 158.249,296.708 148.5,303C 145.5,303.667 142.5,303.667 139.5,303C 136.688,301.023 134.022,298.856 131.5,296.5C 121.706,279.3 114.539,260.967 110,241.5C 107.727,232.193 105.56,222.86 103.5,213.5C 110.47,201.03 120.47,191.864 133.5,186C 145.768,180.69 157.935,175.19 170,169.5C 170.667,170.5 170.667,171.5 170,172.5C 163.409,178.756 158.409,186.089 155,194.5C 150.096,219.528 153.596,243.195 165.5,265.5C 167.302,267.922 169.635,268.755 172.5,268C 174.359,266.442 175.859,264.609 177,262.5C 177.667,211.833 177.667,161.167 177,110.5C 169.413,115.711 161.58,120.545 153.5,125C 146.47,129.189 141.47,135.023 138.5,142.5C 140.377,148.795 142.044,155.129 143.5,161.5C 139.116,161.826 134.783,161.492 130.5,160.5C 123.054,151.228 116.221,141.562 110,131.5C 106.948,123.764 106.948,116.098 110,108.5C 113.557,104.975 117.39,101.809 121.5,99C 134.564,90.8085 147.564,82.6419 160.5,74.5 Z"/></g>
<g><path style="opacity:1" fill="#f9faf9" d="M 1190.5,93.5 C 1193.5,93.5 1196.5,93.5 1199.5,93.5C 1199.49,102.194 1199.99,110.861 1201,119.5C 1213.78,115.027 1226.28,109.86 1238.5,104C 1242.11,102.85 1245.78,102.017 1249.5,101.5C 1250.6,110.748 1252.76,119.748 1256,128.5C 1258.84,133.519 1262.18,138.186 1266,142.5C 1266.67,178.167 1266.67,213.833 1266,249.5C 1264.3,252.19 1262.3,254.523 1260,256.5C 1243.83,250.529 1227.16,246.195 1210,243.5C 1208.24,243.544 1206.57,243.878 1205,244.5C 1204.33,269.167 1204.33,293.833 1205,318.5C 1205.33,328.817 1206.5,338.983 1208.5,349C 1216.5,355.667 1224.5,362.333 1232.5,369C 1231.67,369.167 1230.83,369.333 1230,369.5C 1202.11,363.739 1174.61,357.239 1147.5,350C 1151.84,345.731 1156.34,341.564 1161,337.5C 1161.27,273.832 1160.94,210.165 1160,146.5C 1152.91,145.685 1145.75,145.185 1138.5,145C 1152.03,133.133 1164.53,120.3 1176,106.5C 1180.43,101.56 1185.27,97.2265 1190.5,93.5 Z M 1234.5,135.5 C 1237.04,135.104 1239.21,135.771 1241,137.5C 1241.83,170.838 1241.67,204.172 1240.5,237.5C 1228.84,234.938 1217.34,231.938 1206,228.5C 1204.71,201.51 1204.37,174.51 1205,147.5C 1214.46,142.513 1224.3,138.513 1234.5,135.5 Z"/></g>
<g><path style="opacity:1" fill="#f9faf9" d="M 937.5,123.5 C 939.568,126.431 941.901,129.264 944.5,132C 975.167,132.667 1005.83,132.667 1036.5,132C 1038.07,128.803 1040.07,125.97 1042.5,123.5C 1043.33,142.158 1043.83,160.824 1044,179.5C 1057.48,168.697 1070.98,157.864 1084.5,147C 1087.96,143.886 1091.96,142.886 1096.5,144C 1109.83,152.667 1123.17,161.333 1136.5,170C 1142.12,185.776 1147.12,201.776 1151.5,218C 1147.41,226.106 1143.41,234.272 1139.5,242.5C 1139,242.833 1138.5,243.167 1138,243.5C 1119.49,233.204 1099.99,230.537 1079.5,235.5C 1079.17,238.5 1078.83,241.5 1078.5,244.5C 1079.91,268.154 1081.07,291.82 1082,315.5C 1085.81,321.233 1090.81,325.567 1097,328.5C 1103.84,319.671 1108.17,309.671 1110,298.5C 1110.97,290.193 1111.47,281.859 1111.5,273.5C 1114.04,274.468 1116.21,276.135 1118,278.5C 1123.51,286.011 1129.01,293.511 1134.5,301C 1125.09,315.157 1115.42,329.157 1105.5,343C 1096.84,343.905 1088.17,344.238 1079.5,344C 1063.33,329.833 1047.17,315.667 1031,301.5C 1026.41,277.011 1025.41,252.344 1028,227.5C 1029.28,214.783 1030.94,202.116 1033,189.5C 1034.92,186.29 1037.42,183.623 1040.5,181.5C 1035.5,173.5 1030.5,165.5 1025.5,157.5C 1020.23,156.549 1014.9,156.215 1009.5,156.5C 1007.83,224.839 1006.33,293.172 1005,361.5C 1010.12,372.455 1016.29,382.789 1023.5,392.5C 1022.64,393.583 1021.64,393.749 1020.5,393C 1005.02,383.933 989.358,375.433 973.5,367.5C 974.687,296.485 976.02,225.485 977.5,154.5C 970.109,154.201 962.776,154.535 955.5,155.5C 949.801,163.523 944.134,171.523 938.5,179.5C 937.5,160.845 937.167,142.179 937.5,123.5 Z M 1085.5,162.5 C 1087.91,162.921 1089.74,164.254 1091,166.5C 1098.43,184.235 1106.26,201.735 1114.5,219C 1107.52,218.689 1100.52,218.189 1093.5,217.5C 1088.5,217.917 1083.5,218.25 1078.5,218.5C 1079.88,200.459 1081.72,182.459 1084,164.5C 1084.72,163.956 1085.22,163.289 1085.5,162.5 Z"/></g>
<g><path style="opacity:1" fill="#f9faf9" d="M 505.5,161.5 C 516.52,161.168 527.52,161.501 538.5,162.5C 535.777,164.531 532.777,166.198 529.5,167.5C 528.403,213.501 528.57,259.501 530,305.5C 530.192,307.577 530.692,309.577 531.5,311.5C 535.382,313.934 539.048,316.601 542.5,319.5C 524.5,320.833 506.5,320.833 488.5,319.5C 492.573,315.716 496.74,312.049 501,308.5C 501.667,281.5 501.667,254.5 501,227.5C 472.051,262.432 442.884,297.099 413.5,331.5C 412.667,286.17 412.167,240.837 412,195.5C 408.293,191.975 404.126,188.975 399.5,186.5C 416.5,185.167 433.5,185.167 450.5,186.5C 447.093,189.618 443.593,192.618 440,195.5C 439.013,216.649 439.347,237.649 441,258.5C 459.514,227.169 477.347,195.502 494.5,163.5C 498.313,162.833 501.979,162.166 505.5,161.5 Z"/></g>
</svg>
